<?xml version="1.0" ?><svg contentScriptType="text/ecmascript" contentStyleType="text/css" enable-background="new 0 0 136.333 123" height="64.0px" id="Layer_1" preserveAspectRatio="xMidYMid meet" version="1.0" viewBox="27.861000061035156 23.441003799438477 64.0 64.0" width="64.0px" xml:space="preserve" xmlns="http://www.w3.org/2000/svg" xmlns:xlink="http://www.w3.org/1999/xlink" zoomAndPan="magnify"><g><g><path d="M27.861,55.441c0,17.673,14.327,32,32,32v-64C42.188,23.441,27.861,37.768,27.861,55.441z" fill="#FFC965"/><path d="M59.861,23.441v64c17.673,0,32-14.327,32-32S77.534,23.441,59.861,23.441z" fill="#F7BE2A"/></g><path d="M78.861,46.239c-2.773,0-5.021,2.248-5.021,5.021c0,0.648,0.135,1.265,0.357,1.835l-7.348,7.347   L54.386,47.979c-0.032-0.037-0.059-0.077-0.093-0.112c-0.101-0.102-0.211-0.188-0.326-0.264c-0.781-0.575-1.887-0.517-2.594,0.191   c-0.16,0.16-0.278,0.346-0.374,0.537l-8.301,8.301c-0.564-0.221-1.176-0.353-1.819-0.353c-2.771,0-5.021,2.248-5.021,5.021   c0,2.773,2.248,5.021,5.021,5.021c2.773,0,5.021-2.248,5.021-5.021c0-0.654-0.135-1.275-0.362-1.851l7.331-7.332l12.461,12.461   c0.033,0.038,0.06,0.08,0.095,0.115c0.102,0.103,0.213,0.188,0.327,0.264c0.352,0.259,0.764,0.395,1.18,0.395   c0.512,0,1.023-0.195,1.414-0.586c0.161-0.161,0.279-0.345,0.374-0.538l8.306-8.305c0.569,0.225,1.186,0.356,1.835,0.356   c2.773,0,5.021-2.248,5.021-5.021C83.881,48.486,81.634,46.239,78.861,46.239z" fill="#F88F40"/></g></svg>